<svg xmlns="http://www.w3.org/2000/svg" viewBox="0 0 391.3 391.3"><path d="M195.7 391.3h0C87.6 391.3 0 303.7 0 195.7h0C0 87.6 87.6 0 195.7 0h0c108.1 0 195.7 87.6 195.7 195.7h0c-.1 108-87.7 195.6-195.7 195.6z" fill="#fff"/><path d="M218.6 273.5a15.82 15.82 0 0 1-12.4-6l-49.1-62.7c-4.5-5.7-4.5-13.7 0-19.4l49.1-62.7c5.4-6.8 15.2-8 22.1-2.7 6.8 5.3 8 15.2 2.7 22.1l-41.5 53.1 41.5 53c5.3 6.8 4.1 16.7-2.7 22.1-2.9 2.1-6.3 3.2-9.7 3.2z" fill="#0d4676"/><path d="M80.1 273.5c-3.4 0-6.8-1.1-9.7-3.3-6.8-5.3-8-15.2-2.7-22.1l41.5-53.1-41.5-53c-5.3-6.8-4.1-16.7 2.7-22.1 6.8-5.3 16.7-4.1 22.1 2.7l49.1 62.7c4.5 5.7 4.5 13.7 0 19.4l-49.1 62.7c-3.2 4-7.8 6.1-12.4 6.1z" fill="#dd3083"/><path d="M292.5 287.2C314 262.5 327 230.3 327 195c0-77.4-63-140.4-140.4-140.4-32.3 0-63.9 11.3-88.8 31.7-8.3 6.8-9.6 19.1-2.7 27.4 6.8 8.3 19.1 9.5 27.4 2.7 18-14.8 40.8-22.9 64.2-22.9 55.9 0 101.4 45.5 101.4 101.4s-45.5 101.4-101.4 101.4c-23.4 0-46.2-8.1-64.2-22.9-8.3-6.8-20.6-5.6-27.4 2.7s-5.6 20.6 2.7 27.4c25 20.4 56.5 31.7 88.9 31.7 28.2 0 54.4-8.4 76.4-22.7l14.6 17.1c3.9 4.5 9.3 6.8 14.8 6.8 4.5 0 9-1.5 12.7-4.7 8.2-7 9.1-19.3 2.2-27.5l-14.9-17z" fill="#0d4676"/></svg>