<svg width="100" height="36" viewBox="0 0 100 36" fill="none" xmlns="http://www.w3.org/2000/svg">
<path fill-rule="evenodd" clip-rule="evenodd" d="M15.3637 0.308105C11.2661 0.308105 7.25248 1.70696 4.06043 4.2468C2.97883 5.10713 2.80797 6.67202 3.6786 7.74174C4.54774 8.81145 6.13003 8.98043 7.21163 8.12011C9.54717 6.26206 12.3656 5.27978 15.3637 5.27978C22.5412 5.27978 28.3808 11.0552 28.3808 18.1546C28.3808 25.2532 22.5412 31.0286 15.3637 31.0286C12.3656 31.0286 9.54717 30.047 7.21163 28.1883C6.13077 27.3272 4.54848 27.4969 3.6786 28.5666C2.80797 29.6363 2.97883 31.2012 4.06043 32.0616C7.25174 34.6014 11.2661 36.0003 15.3637 36.0003C19.0587 36.0003 22.4967 34.8946 25.3596 33.0027L26.9456 35.0297C27.4404 35.663 28.184 35.9944 28.9357 35.9944C29.4721 35.9944 30.0136 35.8254 30.4712 35.475C31.5684 34.6352 31.7705 33.074 30.9207 31.9881L29.12 29.6841C31.7913 26.5719 33.4077 22.548 33.4077 18.1546C33.4077 8.31406 25.3136 0.308105 15.3637 0.308105Z" fill="white"/>
<path fill-rule="evenodd" clip-rule="evenodd" d="M9.92989 19.3124C9.944 19.2916 9.95663 19.2708 9.96926 19.25C9.9908 19.2136 10.0109 19.1772 10.0309 19.1401C10.0435 19.1141 10.0569 19.0881 10.0688 19.0621C10.0844 19.0294 10.0993 18.9967 10.1119 18.9626C10.1253 18.9314 10.1364 18.9002 10.1483 18.869C10.1587 18.8392 10.1676 18.8088 10.1773 18.7791C10.1877 18.7434 10.1966 18.7092 10.2055 18.6743C10.2129 18.6454 10.2189 18.6164 10.2241 18.5867C10.2315 18.551 10.2382 18.5146 10.2434 18.4782C10.2478 18.4485 10.2508 18.418 10.2545 18.3876C10.2567 18.3527 10.2597 18.3178 10.2619 18.2828C10.2634 18.2494 10.2634 18.2167 10.2634 18.184C10.2634 18.1521 10.2634 18.1202 10.2619 18.0875C10.2597 18.0518 10.2567 18.0162 10.2538 17.9805C10.2508 17.9508 10.2478 17.9218 10.2434 17.8928C10.2382 17.855 10.2315 17.8178 10.2241 17.7799C10.2189 17.7524 10.2129 17.725 10.2062 17.6967C10.1973 17.6603 10.1877 17.6247 10.1765 17.5883C10.1676 17.5593 10.1587 17.5311 10.1483 17.5014C10.1371 17.4694 10.1245 17.4367 10.1111 17.4048C10.0985 17.3721 10.0844 17.3409 10.0695 17.309C10.0569 17.2815 10.0435 17.254 10.0294 17.2265C10.0109 17.1916 9.99154 17.1567 9.97074 17.1225C9.95663 17.0995 9.94326 17.0764 9.9284 17.0542C9.90463 17.0178 9.87937 16.9821 9.85263 16.9464C9.8452 16.936 9.83777 16.9234 9.82886 16.913L3.70772 9.04021C3.00572 8.1369 1.70423 7.97421 0.800172 8.67696C-0.103142 9.37896 -0.266571 10.6812 0.436915 11.5845L5.56857 18.1848L0.436915 24.7851C-0.266571 25.6891 -0.103142 26.9906 0.800172 27.6926C1.17829 27.9875 1.62623 28.1294 2.0712 28.1294C2.68852 28.1294 3.29989 27.8546 3.70772 27.3294L9.82886 19.4566C9.83703 19.4469 9.84297 19.4358 9.85114 19.4254C9.87863 19.389 9.90537 19.3511 9.92989 19.3124Z" fill="white"/>
<path fill-rule="evenodd" clip-rule="evenodd" d="M11.2022 18.0986C11.2037 18.1337 11.2067 18.1689 11.2105 18.204C11.2135 18.2346 11.2165 18.2652 11.2203 18.2951C11.2263 18.3317 11.2331 18.3676 11.2398 18.4042C11.2459 18.4333 11.2519 18.4624 11.2587 18.4916C11.2677 18.5267 11.2782 18.5618 11.288 18.5976C11.297 18.6275 11.3068 18.6581 11.3174 18.688C11.3287 18.7194 11.3415 18.7508 11.3535 18.7821C11.3678 18.8165 11.3814 18.8494 11.3979 18.8822C11.4092 18.9084 11.4227 18.9345 11.4371 18.9599C11.4559 18.998 11.4769 19.0346 11.4988 19.0712C11.5116 19.0921 11.5251 19.1123 11.5379 19.134C11.5635 19.1721 11.5906 19.2102 11.6192 19.2475C11.626 19.258 11.6328 19.2684 11.6403 19.2789L17.8425 27.1955C18.2565 27.7236 18.8759 28 19.5014 28C19.9515 28 20.4062 27.8566 20.7885 27.5608C21.7046 26.8549 21.8694 25.5461 21.1581 24.637L15.957 18L21.1581 11.3623C21.8694 10.4547 21.7046 9.14521 20.7885 8.43855C19.874 7.73265 18.5545 7.89624 17.8425 8.80458L11.6403 16.7204C11.6312 16.7316 11.6252 16.7443 11.6162 16.7548C11.5898 16.7907 11.5643 16.8265 11.5402 16.8631C11.5259 16.8855 11.5108 16.9079 11.4973 16.9318C11.4762 16.9655 11.4566 17.0006 11.4371 17.0364C11.4235 17.0641 11.4092 17.0909 11.3964 17.1186C11.3814 17.1507 11.3678 17.1821 11.3543 17.2149C11.3415 17.2471 11.3287 17.2799 11.3166 17.3128C11.3068 17.3419 11.2978 17.3711 11.2888 17.4002C11.2782 17.4361 11.2677 17.4727 11.2587 17.5093C11.2519 17.5369 11.2466 17.5653 11.2406 17.5937C11.2331 17.631 11.2255 17.6684 11.2203 17.7065C11.2165 17.7356 11.2135 17.7647 11.2105 17.7946C11.2067 17.8305 11.2037 17.8656 11.2022 17.9014C11.2007 17.9343 11.2 17.9664 11.2 17.9993C11.2 18.0322 11.2007 18.065 11.2022 18.0986Z" fill="white"/>
<path fill-rule="evenodd" clip-rule="evenodd" d="M89.9776 9.6001C88.1186 9.6001 86.4318 10.3594 85.1996 11.5856C83.9681 10.3594 82.2821 9.6001 80.4231 9.6001C76.6612 9.6001 73.6 12.6993 73.6 16.5097V24.3354C73.6 25.4758 74.5155 26.4001 75.6452 26.4001C76.774 26.4001 77.6896 25.4758 77.6896 24.3354V16.5097C77.6896 14.9764 78.916 13.7287 80.4231 13.7287C81.9295 13.7287 83.1552 14.9764 83.1552 16.5097V24.3354C83.1552 25.4758 84.07 26.4001 85.1996 26.4001C86.3292 26.4001 87.2448 25.4758 87.2448 24.3354V16.5097C87.2448 14.9764 88.4704 13.7287 89.9776 13.7287C91.4847 13.7287 92.7103 14.9764 92.7103 16.5097V24.3354C92.7103 25.4758 93.6259 26.4001 94.7555 26.4001C95.8851 26.4001 96.8 25.4758 96.8 24.3354V16.5097C96.8 12.6993 93.7395 9.6001 89.9776 9.6001Z" fill="white"/>
<path fill-rule="evenodd" clip-rule="evenodd" d="M70.4974 10.1099C69.6421 9.36074 68.341 9.44792 67.592 10.3042L63.5995 14.8703L59.6078 10.3042C58.8595 9.44792 57.5592 9.36 56.7032 10.1099C55.8471 10.8599 55.7608 12.1617 56.5098 13.0188L60.8639 18.0001L56.5098 22.9814C55.7608 23.8378 55.8471 25.1404 56.7032 25.8896C57.0935 26.2316 57.5762 26.4001 58.0581 26.4001C58.6307 26.4001 59.2005 26.1622 59.6078 25.696L63.5995 21.1291L67.592 25.696C67.9993 26.1622 68.5691 26.4001 69.1425 26.4001C69.6229 26.4001 70.107 26.2316 70.4974 25.8896C71.3527 25.1404 71.4391 23.8378 70.6907 22.9814L66.3352 18.0001L70.6907 13.0188C71.4391 12.1617 71.3527 10.8599 70.4974 10.1099Z" fill="white"/>
<path fill-rule="evenodd" clip-rule="evenodd" d="M45.9996 22.1899C43.6344 22.1899 41.7106 20.2813 41.7106 17.9341C41.7106 15.5876 43.6344 13.6783 45.9996 13.6783C48.3648 13.6783 50.2893 15.5876 50.2893 17.9341C50.2893 18.7184 50.0705 19.4509 49.6969 20.0825L49.3027 19.5934C48.5947 18.7133 47.3023 18.5701 46.4144 19.2725C45.5273 19.975 45.3822 21.2579 46.0902 22.1387L46.1271 22.1833C46.0843 22.1848 46.0431 22.1899 45.9996 22.1899ZM45.9996 9.6001C41.368 9.6001 37.6 13.3391 37.6 17.9341C37.6 22.5298 41.368 26.2681 45.9996 26.2681C47.0481 26.2681 48.0509 26.0744 48.9771 25.7257L49.5459 26.434C49.9526 26.9377 50.5509 27.2001 51.1543 27.2001C51.6038 27.2001 52.0569 27.0546 52.4349 26.7549C53.322 26.0524 53.4679 24.7688 52.7591 23.8887L52.3502 23.3807C53.6256 21.9187 54.4 20.0145 54.4 17.9341C54.4 13.3391 50.6312 9.6001 45.9996 9.6001Z" fill="white"/>
</svg>
