<svg viewBox="0 0 125 45"  xmlns="http://www.w3.org/2000/svg"><style>.E{stroke-linejoin:round}.F{stroke-linecap:round}.G{stroke-miterlimit:10}</style><g fill="none" class="E"><g stroke-width="5" class="F G"><path d="M26.5 12.4l-7.8 10 7.8 10" stroke="#0d4676"/><path d="M4.5 32.4l7.8-10-7.8-10" stroke="#dd3083"/></g><g stroke="#0d4676"><path d="M9.2 7.5c3.3-2.7 7.6-4.3 12.2-4.3 10.6 0 19.2 8.6 19.2 19.2S32 41.6 21.4 41.6c-4.6 0-8.9-1.6-12.2-4.3m24.8-.4l4.2 4.9" stroke-width="6.2" class="F G"/><g stroke-width="5"><circle cx="59.6" cy="22.2" r="8"/><g class="F G"><path d="M61.6 26l4.6 5.3m8.6-17.1l13.7 16m20.1-10v10m-12 0v-10a6.02 6.02 0 0 1 6-6 6.02 6.02 0 0 1 6 6 6.02 6.02 0 0 1 6-6 6.02 6.02 0 0 1 6 6v10"/><path d="M88.5 14.2l-13.7 16"/></g></g></g></g></svg>